<svg width="18" height="18" viewBox="0 0 18 18" fill="none" xmlns="http://www.w3.org/2000/svg">
<path fill-rule="evenodd" clip-rule="evenodd" d="M11 2C10.4477 2 10 1.55228 10 1C10 0.447715 10.4477 0 11 0H17C17.5523 0 18 0.447715 18 1V7C18 7.55228 17.5523 8 17 8C16.4477 8 16 7.55228 16 7V3.41421L7.70711 11.7071C7.31658 12.0976 6.68342 12.0976 6.29289 11.7071C5.90237 11.3166 5.90237 10.6834 6.29289 10.2929L14.5858 2H11ZM0.87868 2.87868C1.44129 2.31607 2.20435 2 3 2H7C7.55228 2 8 2.44772 8 3C8 3.55228 7.55228 4 7 4H3C2.73478 4 2.48043 4.10536 2.29289 4.29289C2.10536 4.48043 2 4.73478 2 5V15C2 15.2652 2.10536 15.5196 2.29289 15.7071C2.48043 15.8946 2.73478 16 3 16H13C13.2652 16 13.5196 15.8946 13.7071 15.7071C13.8946 15.5196 14 15.2652 14 15V11C14 10.4477 14.4477 10 15 10C15.5523 10 16 10.4477 16 11V15C16 15.7956 15.6839 16.5587 15.1213 17.1213C14.5587 17.6839 13.7956 18 13 18H3C2.20435 18 1.44129 17.6839 0.87868 17.1213C0.31607 16.5587 0 15.7956 0 15V5C0 4.20435 0.31607 3.44129 0.87868 2.87868Z" fill="#3F3F46"/>
</svg>
